<svg xmlns="http://www.w3.org/2000/svg" viewBox="0 0 556.5 291.07"><defs><style>.cls-1{font-size:13px;font-family:MyriadPro-Regular, Myriad Pro;}.cls-1,.cls-2{fill:#28b898;}.cls-3{fill:#fbae17;}.cls-4{fill:#eb7b7c;}.cls-5,.cls-6,.cls-7{fill:none;stroke-miterlimit:10;}.cls-5{stroke:#999;}.cls-5,.cls-6{stroke-width:3px;}.cls-6{stroke:#eb7b7c;}.cls-7{stroke:#e6e6e6;}</style></defs><title>Asset 11</title><g id="Layer_2" data-name="Layer 2"><g id="Capa_1" data-name="Capa 1"><text class="cls-1" transform="translate(28.1 287.82)">7:00</text><text class="cls-1" transform="translate(76.1 287.82)">7:30</text><text class="cls-1" transform="translate(124.1 287.82)">8:00</text><text class="cls-1" transform="translate(173.1 287.82)">8:30</text><text class="cls-1" transform="translate(220.1 287.82)">9:00</text><text class="cls-1" transform="translate(268.1 287.82)">9:30</text><text class="cls-1" transform="translate(312.1 287.82)">10:00</text><text class="cls-1" transform="translate(361.1 287.82)">10:30</text><text class="cls-1" transform="translate(409.1 287.82)">11:00</text><text class="cls-1" transform="translate(457.1 287.82)">11:30</text><text class="cls-1" transform="translate(505.1 287.82)">12:00</text><rect class="cls-2" x="75.5" y="165" width="24" height="102"/><rect class="cls-2" x="27.5" y="185" width="24" height="82"/><rect class="cls-2" x="123.5" y="150" width="24" height="117"/><rect class="cls-2" x="171.5" y="99" width="24" height="169"/><rect class="cls-2" x="411.25" y="99" width="24" height="167"/><rect class="cls-3" x="411.25" y="99" width="24" height="51"/><rect class="cls-2" x="459.5" y="150" width="24" height="118"/><rect class="cls-2" x="507.5" y="165" width="24" height="102"/><rect class="cls-2" x="219.5" y="42" width="24" height="226"/><rect class="cls-4" x="219.5" y="43" width="24" height="55"/><rect class="cls-3" x="219.5" y="99" width="24" height="51"/><rect class="cls-3" x="171" y="99" width="24" height="51"/><rect class="cls-2" x="267.5" y="41" width="24" height="226"/><rect class="cls-4" x="267.5" y="21" width="24" height="76"/><rect class="cls-3" x="267.5" y="99" width="24" height="51"/><rect class="cls-2" x="315.5" y="49" width="24" height="218"/><rect class="cls-4" x="315.75" y="49" width="24" height="49.38"/><rect class="cls-3" x="315.75" y="98" width="24" height="52"/><rect class="cls-4" x="363.25" y="49" width="24" height="48"/><rect class="cls-2" x="363.5" y="150" width="24" height="117"/><rect class="cls-3" x="363.25" y="97" width="24" height="53"/><polyline class="cls-5" points="556.5 267 1.5 267 1.5 0"/><line class="cls-6" x1="1.5" y1="98" x2="556.5" y2="98"/><line class="cls-7" x1="1.5" y1="150" x2="556" y2="150"/></g></g></svg>