<svg xmlns="http://www.w3.org/2000/svg" viewBox="0 0 107 107"><defs><style>.cls-1{fill:#d8d8e4;}.cls-2{fill:#898998;}.cls-3{fill:#feda9b;}.cls-4{fill:#ffc66c;}.cls-5{fill:#c9f3ff;}.cls-6{fill:#ff5d5d;}</style></defs><title>Asset 1</title><g id="Layer_2" data-name="Layer 2"><g id="Capa_1" data-name="Capa 1"><polygon class="cls-1" points="104.91 104.91 86.94 68.75 20.06 68.75 2.09 104.91 104.91 104.91"/><path class="cls-2" d="M20.06,82.13h0a6.68,6.68,0,0,1-6.68-6.69V68.76H26.75v6.68A6.68,6.68,0,0,1,20.06,82.13Z"/><path class="cls-2" d="M86.94,82.13h0a6.68,6.68,0,0,1-6.69-6.69V68.76H93.62v6.68A6.68,6.68,0,0,1,86.94,82.13Z"/><path class="cls-3" d="M93.62,36.36H13.38A11.29,11.29,0,0,0,2.09,47.65V68.76H104.91V47.65A11.29,11.29,0,0,0,93.62,36.36Z"/><path class="cls-4" d="M93.62,36.36l-6.16-25.1a12,12,0,0,0-11.7-9.17H31.24a12,12,0,0,0-11.7,9.17l-6.16,25.1Z"/><path class="cls-5" d="M84.87,35.78,79.34,13.25a3.68,3.68,0,0,0-3.58-2.8H31.24a3.68,3.68,0,0,0-3.58,2.8L22.1,35.91Z"/><rect class="cls-6" x="36.78" y="46.54" width="33.44" height="10.03"/><circle class="cls-5" cx="19.23" cy="52.56" r="5.85"/><circle class="cls-5" cx="87.77" cy="52.56" r="5.85"/><path d="M102.73,37.86a2.08,2.08,0,0,0,.63-1.5V29.49a6.59,6.59,0,0,0-6.58-6.59H92.47l-3-12.14A14.11,14.11,0,0,0,75.76,0H31.24A14.11,14.11,0,0,0,17.51,10.76l-3,12.14H10.22a6.59,6.59,0,0,0-6.58,6.59v6.87a2.08,2.08,0,0,0,.63,1.5A13.36,13.36,0,0,0,0,47.65V68.76a2.1,2.1,0,0,0,2.09,2.09h9.2v4.59a8.78,8.78,0,1,0,17.55,0V70.85H51.41v6a2.09,2.09,0,0,0,4.18,0v-6H78.16v4.59a8.78,8.78,0,1,0,17.55,0V70.85h9.2A2.1,2.1,0,0,0,107,68.76V47.65A13.36,13.36,0,0,0,102.73,37.86Zm-6-10.78a2.41,2.41,0,0,1,2.4,2.41v4.78H95.26L93.5,27.08ZM21.57,11.76a9.94,9.94,0,0,1,9.67-7.58H75.76a9.94,9.94,0,0,1,9.67,7.58L91,34.27h-4.3L81.37,12.76a5.76,5.76,0,0,0-5.61-4.4H31.24a5.76,5.76,0,0,0-5.61,4.4L20.34,34.27H16ZM48.13,21.7a2.09,2.09,0,0,0-3,0L32.72,34.15l-.11.12h-8l5-20.52a1.59,1.59,0,0,1,1.55-1.21H66.78L54,25.27a2.09,2.09,0,0,0,3,3L72.69,12.54h3.07a1.59,1.59,0,0,1,1.55,1.21l5,20.52H38.51l9.62-9.61A2.11,2.11,0,0,0,48.13,21.7ZM7.82,29.49a2.41,2.41,0,0,1,2.4-2.41H13.5l-1.76,7.19H7.82Zm16.84,46a4.6,4.6,0,1,1-9.19,0V70.85h9.19Zm66.88,0a4.6,4.6,0,0,1-9.2,0V70.85h9.2Zm11.28-8.77H4.18v-19a9.21,9.21,0,0,1,9.2-9.2H93.63a9.21,9.21,0,0,1,9.19,9.2Z"/><path d="M70.22,44.45H36.78a2.09,2.09,0,0,0-2.09,2.09v10a2.1,2.1,0,0,0,2.09,2.09H70.22a2.1,2.1,0,0,0,2.09-2.09v-10A2.09,2.09,0,0,0,70.22,44.45Zm-2.09,10H38.87V48.63H68.13Z"/><path d="M51.83,20.09a2.08,2.08,0,0,0,1.47-.61,2.08,2.08,0,0,0,0-3,2.08,2.08,0,0,0-1.47-.61,2.09,2.09,0,1,0,0,4.18Z"/><path d="M19.23,44.62a7.94,7.94,0,1,0,7.94,7.94A7.95,7.95,0,0,0,19.23,44.62Zm0,11.7A3.76,3.76,0,1,1,23,52.56,3.76,3.76,0,0,1,19.23,56.32Z"/><path d="M87.77,44.62a7.94,7.94,0,1,0,7.94,7.94A7.95,7.95,0,0,0,87.77,44.62Zm0,11.7a3.76,3.76,0,1,1,3.77-3.76A3.77,3.77,0,0,1,87.77,56.32Z"/><path d="M10.3,88.39a2.09,2.09,0,0,0-2.8.94L.22,104A2.09,2.09,0,1,0,4,105.84l7.28-14.65A2.09,2.09,0,0,0,10.3,88.39Z"/><path d="M99.5,89.33a2.09,2.09,0,1,0-3.74,1.86L103,105.84a2.09,2.09,0,0,0,3.74-1.86Z"/><path d="M53.5,96.76a2.09,2.09,0,0,0-2.09,2.09v6.06a2.09,2.09,0,0,0,4.18,0V98.85A2.09,2.09,0,0,0,53.5,96.76Z"/><path d="M53.5,83.14a2.1,2.1,0,0,0-2.09,2.09v5a2.09,2.09,0,1,0,4.18,0v-5A2.1,2.1,0,0,0,53.5,83.14Z"/></g></g></svg>