<svg xmlns="http://www.w3.org/2000/svg" xmlns:xlink="http://www.w3.org/1999/xlink" viewBox="0 0 69 63.49"><defs><style>.cls-1{fill:none;}.cls-2{fill:#f8eed1;}.cls-3{fill:#edd8a1;}.cls-4{fill:#97d1c2;}.cls-5{fill:#f08686;}.cls-6{fill:#d15463;}.cls-7{fill:#495059;}.cls-8{fill:#aad7ef;}.cls-9{fill:#f8e2ca;}.cls-10{fill:#fff;}.cls-11{fill:#edd1b5;}.cls-12{fill:#f19a87;}.cls-13{clip-path:url(#clip-path);}.cls-14{fill:#41464f;}</style><clipPath id="clip-path" transform="translate(0 -0.13)"><rect class="cls-1" width="69" height="63.73"/></clipPath></defs><title>Asset 9</title><g id="Layer_2" data-name="Layer 2"><g id="Capa_1" data-name="Capa 1"><path class="cls-2" d="M45.64,34.08H2.94A1.92,1.92,0,0,1,1,32.16V3.07A1.92,1.92,0,0,1,2.94,1.14h42.7a1.92,1.92,0,0,1,1.93,1.93V32.16a1.92,1.92,0,0,1-1.93,1.92Z" transform="translate(0 -0.13)"/><path class="cls-3" d="M10,1.14H2.94A1.92,1.92,0,0,0,1,3.07V32.16a1.92,1.92,0,0,0,1.93,1.92H25.1C11.85,25.37,10.32,9.18,10,1.14Z" transform="translate(0 -0.13)"/><path class="cls-4" d="M41.13,14.37a8.95,8.95,0,1,1-9-8.94,8.95,8.95,0,0,1,9,8.94Z" transform="translate(0 -0.13)"/><path class="cls-5" d="M10,25.37h5.89a1.91,1.91,0,0,0,1.91-1.92V21.93A1.91,1.91,0,0,0,15.91,20H10A1.92,1.92,0,0,0,8.1,21.93v1.52A1.92,1.92,0,0,0,10,25.37Z" transform="translate(0 -0.13)"/><path class="cls-6" d="M10,25.37h5.89a2,2,0,0,0,.55-.08A35,35,0,0,1,13.7,20H10A1.92,1.92,0,0,0,8.1,21.93v1.52A1.92,1.92,0,0,0,10,25.37Z" transform="translate(0 -0.13)"/><path class="cls-7" d="M49.46,62.61a3.12,3.12,0,0,1-3.11-3.12V50.73a3.12,3.12,0,0,1,6.23,0v8.76a3.12,3.12,0,0,1-3.12,3.12Z" transform="translate(0 -0.13)"/><path class="cls-7" d="M39.4,62.61a3.12,3.12,0,0,1-3.11-3.12V50.73a3.12,3.12,0,0,1,6.23,0v8.76a3.12,3.12,0,0,1-3.12,3.12Z" transform="translate(0 -0.13)"/><path class="cls-8" d="M54.36,39.7H51.74a3.12,3.12,0,1,1,0-6.23h1.63c3.5,0,4.68.07,9.84-3.2a3.11,3.11,0,1,1,3.33,5.26c-5.9,3.74-8.41,4.18-12.18,4.18Z" transform="translate(0 -0.13)"/><path class="cls-8" d="M28,44.17A10.65,10.65,0,0,1,21.5,42,3.12,3.12,0,0,1,25.32,37a4.4,4.4,0,0,0,3.45.84,5,5,0,0,0,3.38-2.36,3.12,3.12,0,1,1,5.23,3.39A11.22,11.22,0,0,1,29.82,44a10.93,10.93,0,0,1-1.8.15Z" transform="translate(0 -0.13)"/><path class="cls-9" d="M27,37.81A4.15,4.15,0,0,1,25.32,37,3.12,3.12,0,0,0,21.5,42a10.53,10.53,0,0,0,3.34,1.73Z" transform="translate(0 -0.13)"/><path class="cls-8" d="M44.43,28A10.67,10.67,0,0,0,33.76,38.66V44A10.67,10.67,0,0,0,55.1,44V38.66A10.67,10.67,0,0,0,44.43,28Z" transform="translate(0 -0.13)"/><path class="cls-5" d="M45.84,35.09H43l-1.48,7a.8.8,0,0,0,.24.76l1.95,1.78a1,1,0,0,0,1.4,0l1.95-1.78a.8.8,0,0,0,.24-.76Z" transform="translate(0 -0.13)"/><path class="cls-10" d="M51.78,41H50.25a1,1,0,1,1,0-2h1.53a1,1,0,0,1,0,2Z" transform="translate(0 -0.13)"/><path class="cls-9" d="M62.31,22.09c0,9.87-8,15.16-17.88,15.16S26.55,32,26.55,22.09s8-17.15,17.88-17.15,17.88,7.27,17.88,17.15Z" transform="translate(0 -0.13)"/><path class="cls-11" d="M59.32,31.14C33.67,41.89,27.4,18.6,35.18,7.32a16.74,16.74,0,0,0-8.63,14.77c0,9.87,8,15.16,17.88,15.16,6.22,0,11.69-2.1,14.89-6.11Z" transform="translate(0 -0.13)"/><path class="cls-12" d="M38.74,24.3c0-1.47-1.49-2.65-3.33-2.65s-3.33,1.18-3.33,2.65S33.57,27,35.41,27s3.33-1.19,3.33-2.65Z" transform="translate(0 -0.13)"/><path class="cls-12" d="M56.79,24.3c0-1.47-1.5-2.65-3.33-2.65s-3.33,1.18-3.33,2.65S51.62,27,53.46,27s3.33-1.19,3.33-2.65Z" transform="translate(0 -0.13)"/><path class="cls-7" d="M44.43,24.67A2.41,2.41,0,0,1,42,22.26V20.51a.65.65,0,0,1,.66-.66h3.51a.65.65,0,0,1,.65.66v1.75a2.41,2.41,0,0,1-2.41,2.41Z" transform="translate(0 -0.13)"/><path class="cls-7" d="M61.27,16.16C58.8,9.44,52.2,4.94,44.43,4.94c-9.1,0-16.61,6.18-17.73,14.88,2.93-.61,7-4.35,8.16-7.27,6.28,4.46,20,5.66,26.41,3.61Z" transform="translate(0 -0.13)"/><path class="cls-7" d="M34.12,46.78a10.67,10.67,0,0,0,20.62,0Z" transform="translate(0 -0.13)"/><path class="cls-9" d="M63.82,37.14c.83-.45,1.73-1,2.72-1.62a3.11,3.11,0,1,0-3.33-5.26c-1,.62-1.83,1.13-2.57,1.53Z" transform="translate(0 -0.13)"/><g class="cls-13"><path class="cls-14" d="M32.11,16.41a18.44,18.44,0,0,1,3.07-9.09,16.69,16.69,0,0,0-8.48,12.5,12.28,12.28,0,0,0,5.41-3.41Z" transform="translate(0 -0.13)"/><path d="M8.1,15.38h9.72a1,1,0,0,0,0-2H8.1a1,1,0,1,0,0,2Zm0-5.72h9.72a1,1,0,1,0,0-2H8.1a1,1,0,0,0,0,2ZM36,22.18a1,1,0,0,0,1-1V19.74a1,1,0,0,0-2,0v1.43a1,1,0,0,0,1,1Zm16.94,0a1,1,0,0,0,1-1V19.74a1,1,0,0,0-2,0v1.43a1,1,0,0,0,1,1Zm-8.47,3.5a3.42,3.42,0,0,0,3.42-3.42V20.51a1.66,1.66,0,0,0-1.66-1.67H42.68A1.67,1.67,0,0,0,41,20.51v1.75a3.42,3.42,0,0,0,3.42,3.42ZM43,20.86h2.8v1.4a1.4,1.4,0,0,1-2.8,0Zm25.33,9.82a4.15,4.15,0,0,0-2.58-1.82,4.1,4.1,0,0,0-3.11.54c-.57.36-1.08.68-1.56,1a15.54,15.54,0,0,0,2.21-8.27,17.66,17.66,0,0,0-5.55-13,18.79,18.79,0,0,0-9.19-4.73V3.07A2.94,2.94,0,0,0,45.64.13h-36a1,1,0,1,0,0,2h36a.92.92,0,0,1,.92.92V4c-.7-.07-1.41-.11-2.13-.11A19.27,19.27,0,0,0,31.1,9.08a17.54,17.54,0,0,0-5.4,10.55s0,.06,0,.1a18.35,18.35,0,0,0-.15,2.36,14.93,14.93,0,0,0,4.38,11h-11L16.12,29.8a1,1,0,0,0-1.55,1.29l1.66,2H2.94A.92.92,0,0,1,2,32.16V3.07a.92.92,0,0,1,.92-.92H5.1a1,1,0,1,0,0-2H2.94A2.94,2.94,0,0,0,0,3.07V32.16a2.94,2.94,0,0,0,2.94,2.93h15l1.94,2.31a4.12,4.12,0,0,0,1,5.36,11.66,11.66,0,0,0,3.6,1.87h0l.09,0a12,12,0,0,0,3.43.51A10.85,10.85,0,0,0,30,45a11.87,11.87,0,0,0,2.76-.82,11.66,11.66,0,0,0,2.52,7.07v8.23a4.13,4.13,0,0,0,8.26,0V55.67l.9,0q.47,0,.9,0v3.82a4.13,4.13,0,0,0,6.8,3.15,1,1,0,1,0-1.31-1.54,2.1,2.1,0,0,1-3.46-1.61V55.33a11.76,11.76,0,0,0,4.21-2.07v4.55a1,1,0,0,0,2,0V51.26A11.61,11.61,0,0,0,56.11,44V40.67c3.13-.19,5.84-1,11-4.29a4.14,4.14,0,0,0,1.28-5.7ZM32.48,10.55a17.27,17.27,0,0,1,12-4.6,19,19,0,0,1,2.94.23h0a16.89,16.89,0,0,1,9,4.37,15.42,15.42,0,0,1,3.52,4.94,36.47,36.47,0,0,1-11.76.3c-5.33-.64-10-2.12-12.69-4.06a1,1,0,0,0-.87-.15,1,1,0,0,0-.65.59A14.22,14.22,0,0,1,28,18.26a15.53,15.53,0,0,1,4.47-7.71ZM27.56,22.09c0-.5,0-1,.07-1.48A16.26,16.26,0,0,0,35.26,14c4.07,2.44,9.57,3.41,12.64,3.78a37.59,37.59,0,0,0,12.72-.4,16.17,16.17,0,0,1,.68,4.69,12.88,12.88,0,0,1-4.85,10.49,19.43,19.43,0,0,1-12,3.66,19.38,19.38,0,0,1-12-3.66,12.86,12.86,0,0,1-4.86-10.49ZM46.31,42.14l-1.86,1.71h0l-1.86-1.71.83-3.9,1,0,1,0Zm-22.08.25a9.7,9.7,0,0,1-2.11-1.23,2.12,2.12,0,0,1-.79-2,1,1,0,0,0,1.49-1.36l-.2-.24a2.09,2.09,0,0,1,2.08.28,5,5,0,0,0,1,.59ZM21.29,36l-.73-.87H31.21a4,4,0,0,1-2.6,1.79,3.46,3.46,0,0,1-1.4-.05h0a3.22,3.22,0,0,1-1.25-.6A4.13,4.13,0,0,0,21.29,36Zm11.46,2.7v3.27A9.56,9.56,0,0,1,29.65,43a10,10,0,0,1-1.63.14A9.51,9.51,0,0,1,26.17,43l1.46-4a5.73,5.73,0,0,0,1.31-.06A6,6,0,0,0,33,36.06l.07-.09a11.51,11.51,0,0,0-.32,2.69Zm2.18,7.11A10.08,10.08,0,0,1,34.77,44V38.66A9.76,9.76,0,0,1,35,36.44a22.49,22.49,0,0,0,6.32,1.65l-.8,3.75a1.82,1.82,0,0,0,.55,1.71l1.95,1.79a2,2,0,0,0,.72.43Zm6.58,13.72a2.11,2.11,0,1,1-4.21,0V53.26a11.68,11.68,0,0,0,4.21,2.07Zm2.92-5.81a9.67,9.67,0,0,1-8.89-5.89H53.32a9.67,9.67,0,0,1-8.89,5.89ZM54.09,44a10.08,10.08,0,0,1-.16,1.75H45.1a2.15,2.15,0,0,0,.72-.43l1.94-1.79a1.77,1.77,0,0,0,.55-1.71l-.8-3.75a22.49,22.49,0,0,0,6.32-1.65,9.76,9.76,0,0,1,.26,2.22Zm2-5.39a11.67,11.67,0,0,0-.43-3.11,15.85,15.85,0,0,0,2-1.36l0,0a13.44,13.44,0,0,0,2.51-1l2.16,3.64a15.52,15.52,0,0,1-6.31,1.86Zm9.89-4-1.81,1.11L62,32.16c.52-.31,1.09-.65,1.71-1a2.06,2.06,0,0,1,1.59-.27,2.09,2.09,0,0,1,1.31.92A2.11,2.11,0,0,1,66,34.67Z" transform="translate(0 -0.13)"/></g></g></g></svg>