<svg xmlns="http://www.w3.org/2000/svg" viewBox="0 0 204 192.13"><defs><style>.cls-1{fill:#bdc2c6;}.cls-2{fill:#eceff0;}.cls-3{fill:#ffc766;}.cls-4{fill:#28b898;}</style></defs><title>Asset 1</title><g id="Layer_2" data-name="Layer 2"><g id="Capa_1" data-name="Capa 1"><path class="cls-1" d="M147.94,188.15,130.7,90.67H117.47a7.8,7.8,0,0,1-7.8-7.79V46a7.79,7.79,0,0,1,7.8-7.79h4L115.37,4H92l1.78,184.17Z"/><path class="cls-1" d="M167.5,182a5.51,5.51,0,0,1-.07.71A5.51,5.51,0,0,0,167.5,182Z"/><path class="cls-1" d="M167.43,182.67a6.17,6.17,0,0,1-.63,2A6.17,6.17,0,0,0,167.43,182.67Z"/><polygon class="cls-1" points="165.26 169.94 149.42 90.67 149.42 90.67 165.26 169.94"/><path class="cls-1" d="M133.6,11.53l5.33,26.67h0L133.6,11.53A9.38,9.38,0,0,0,124.39,4h0A9.38,9.38,0,0,1,133.6,11.53Z"/><path class="cls-1" d="M163.9,187.51a6.64,6.64,0,0,1-1.34.47A6.64,6.64,0,0,0,163.9,187.51Z"/><polygon class="cls-1" points="78.85 188.15 80.63 3.98 56.12 3.98 23.54 188.15 78.85 188.15"/><path class="cls-2" d="M10.38,188.15H23.54L56.11,4h-9a9.39,9.39,0,0,0-9.21,7.55L4.11,180.5A6.4,6.4,0,0,0,10.38,188.15Z"/><path class="cls-2" d="M130.7,90.67l17.24,97.48H161.1a6.28,6.28,0,0,0,1.46-.17,6.64,6.64,0,0,0,1.34-.47,6.45,6.45,0,0,0,2.9-2.85,6.17,6.17,0,0,0,.63-2,5.51,5.51,0,0,0,.07-.71,6.61,6.61,0,0,0-.13-1.46L165.26,170,149.42,90.67Z"/><path class="cls-2" d="M138.93,38.2,133.6,11.53A9.38,9.38,0,0,0,124.39,4h-9l6,34.22Z"/><polygon class="cls-3" points="93.76 188.15 91.98 3.98 80.63 3.98 78.85 188.15 93.76 188.15"/><path class="cls-4" d="M121.42,38.2h-4a7.79,7.79,0,0,0-7.8,7.79V82.88a7.8,7.8,0,0,0,7.8,7.79h80.4V44.48a6.29,6.29,0,0,0-6.29-6.28H121.42Z"/><path d="M200,121.74h-3.88V94.65h1.73a4,4,0,0,0,4-4V44.48a10.28,10.28,0,0,0-10.27-10.27H142.2l-4.69-23.46A13.4,13.4,0,0,0,124.39,0H47.09A13.42,13.42,0,0,0,34,10.75L.2,179.72A10.69,10.69,0,0,0,0,182.59a10.36,10.36,0,0,0,10.35,9.54H161.1a10.38,10.38,0,0,0,10.18-12.41l-17-85.07h33.89v27.09h-5.38a4,4,0,0,0,0,8H200a4,4,0,0,0,0-8ZM20.2,184.16H10.38A2.41,2.41,0,0,1,8,181.28l33.77-169A5.42,5.42,0,0,1,47.09,8h4.27Zm62.67,0,.53-54.72a4,4,0,0,0-4-4h0a4,4,0,0,0-4,3.94l-.53,54.8H28.29L59.46,8H76.6l-.8,82.66a4,4,0,0,0,4,4h0a4,4,0,0,0,4-3.94L84.57,8H88l1.7,176.19Zm60.92-142H151v44.5H117.47a3.81,3.81,0,0,1-3.81-3.8V46a3.82,3.82,0,0,1,3.81-3.81h26.32ZM124.39,8a5.44,5.44,0,0,1,5.31,4.35l4.37,21.89h-9.31L120.12,8ZM97.71,184.16,96,8h16l4.65,26.27a11.79,11.79,0,0,0-11,11.75V82.88a11.79,11.79,0,0,0,11.78,11.77h9.89l15.83,89.51Zm65.76-2.88a2.41,2.41,0,0,1-2.37,2.88h-9.81L135.45,94.65h10.7ZM159,86.68V42.18h32.6a2.3,2.3,0,0,1,2.3,2.3v42.2H159Z"/><path d="M130.16,49.16l-2.51,1.41L123.41,53a4,4,0,1,0,3.91,6.95l.81-.46V75.55a4,4,0,0,0,4,4,3.6,3.6,0,0,0,.66-.06,4,4,0,0,0,3.33-3.93V59.44l.81.46a4,4,0,0,0,2,.51,3.15,3.15,0,0,0,.44,0A4,4,0,0,0,140.81,53l-3.37-1.9-3.37-1.89A4,4,0,0,0,130.16,49.16Z"/><path d="M187.31,48.64a4,4,0,0,0-6.95,3.91l.46.81h-5.17a8.19,8.19,0,0,0-8.18,8.18v16a4,4,0,0,0,8,0v-16a.21.21,0,0,1,.21-.21h5.17l-.46.81a4,4,0,0,0,1.52,5.43,4.06,4.06,0,0,0,2,.51,4,4,0,0,0,3.48-2l3.79-6.74a4,4,0,0,0,0-3.91Z"/><path d="M83.28,108.88a4.58,4.58,0,0,0-.37-.69,4,4,0,0,0-.49-.6,4.92,4.92,0,0,0-.61-.5,4.58,4.58,0,0,0-.69-.37,3.92,3.92,0,0,0-.74-.22,3.73,3.73,0,0,0-1.56,0,3.81,3.81,0,0,0-.75.22,4.58,4.58,0,0,0-.69.37,4.31,4.31,0,0,0-1.1,1.1,4.52,4.52,0,0,0-.36.69,4,4,0,0,0-.23.74,4.23,4.23,0,0,0-.08.79,4,4,0,0,0,1.17,2.81,3.69,3.69,0,0,0,.61.5,4.42,4.42,0,0,0,.68.36,3.83,3.83,0,0,0,.75.23,3.84,3.84,0,0,0,1.56,0,4,4,0,0,0,.74-.23,4.52,4.52,0,0,0,.69-.36,4.16,4.16,0,0,0,.61-.5,4,4,0,0,0,1.16-2.81,4.22,4.22,0,0,0-.07-.79A4.87,4.87,0,0,0,83.28,108.88Z"/></g></g></svg>