<svg xmlns="http://www.w3.org/2000/svg" viewBox="0 0 59 59"><defs><style>.cls-1{fill:#5ad2e6;}.cls-2{fill:#fad79b;}.cls-3{fill:#fac800;}.cls-4{fill:#41aa5f;}.cls-5{fill:#f03c32;}.cls-6{fill:#5aa096;}</style></defs><title>Asset 10</title><g id="Layer_2" data-name="Layer 2"><g id="Capa_1" data-name="Capa 1"><polygon class="cls-1" points="15.33 5.76 1.15 1.15 1.15 34.65 15.33 39.41 15.33 5.76"/><polygon class="cls-2" points="15.33 39.41 15.33 57.85 29.5 53.24 29.5 34.8 15.33 39.41"/><polygon class="cls-3" points="29.5 34.8 29.5 53.24 43.67 57.85 43.67 39.41 29.5 34.8"/><polygon class="cls-2" points="43.67 39.41 43.67 57.85 57.85 53.24 57.85 34.65 43.67 39.41"/><polygon class="cls-4" points="29.5 1.15 15.33 5.76 15.33 5.85 29.5 25.58 29.5 1.15"/><polygon class="cls-1" points="15.33 5.85 15.33 39.41 29.5 34.8 29.5 25.58 15.33 5.85"/><polygon class="cls-1" points="29.5 25.58 29.5 34.8 43.67 39.41 43.67 30.19 29.5 25.58"/><polygon class="cls-4" points="57.85 25.24 57.85 1.15 43.67 5.76 43.67 30.19 57.85 25.24"/><polygon class="cls-1" points="43.67 30.19 43.67 39.41 57.85 34.65 57.85 25.24 43.67 30.19"/><path class="cls-3" d="M1.15,34.65V53.24l14.18,4.61V39.41Z"/><circle class="cls-5" cx="8.07" cy="46.32" r="2.3"/><path class="cls-6" d="M29.5,1.15V25.58l14.17,4.61V5.76Z"/><circle class="cls-5" cx="36.41" cy="16.48" r="2.3"/><path d="M58.51.24a1.12,1.12,0,0,0-1-.18L43.67,4.55,29.86.06a1.11,1.11,0,0,0-.72,0L15.33,4.55,1.51.06A1.16,1.16,0,0,0,0,1.15V53.24a1.14,1.14,0,0,0,.8,1.09L15,58.94a1.09,1.09,0,0,0,.36.06,1.07,1.07,0,0,0,.35-.06L29.5,54.45l13.82,4.49a1,1,0,0,0,.35.06,1.09,1.09,0,0,0,.36-.06L58.2,54.33a1.14,1.14,0,0,0,.8-1.09V1.15A1.14,1.14,0,0,0,58.51.24ZM14.17,47.05l-2.65-.84a3.46,3.46,0,1,0-.7,2.2l3.35,1.06v6.79L2.3,52.4V36.25l11.87,4Zm-5-.46a1.2,1.2,0,0,1-1.12.89,1.16,1.16,0,1,1,0-2.31A1.2,1.2,0,0,1,9.19,46.59Zm5-8.78-11.87-4V2.74L14.17,6.6Zm14.18,5.37-2.06.67a1.16,1.16,0,0,0-.74,1.45A1.21,1.21,0,0,0,27,46l1.34-.43V52.4L16.48,56.26V49.47l1.76-.58A1.17,1.17,0,0,0,19,47.44a1.19,1.19,0,0,0-1.45-.74L16.48,47V40.25l11.87-3.86v6.79Zm0-9.22L16.48,37.82V9.43L28.35,26Zm0-12L17.13,6.39,28.35,2.74ZM42.52,47l-1.05-.34a1.2,1.2,0,0,0-1.45.74,1.17,1.17,0,0,0,.74,1.45l1.76.58v6.79L30.65,52.4V45.61L32,46a1.16,1.16,0,0,0,1.45-.74,1.18,1.18,0,0,0-.73-1.45l-2.06-.67V36.39l11.87,3.86Zm0-9.22L30.65,34V27.17L42.52,31Zm0-20.62-2.65-.87a3.47,3.47,0,1,0-.68,2.21l3.33,1.08v9L30.65,24.74v-22L42.52,6.6Zm-5-.72a1.16,1.16,0,1,1-1.16-1.15A1.16,1.16,0,0,1,37.57,16.48ZM44.83,31l4.84-1.69v6.86l-4.84,1.63ZM56.7,52.4,44.83,56.26v-6.8l2.49-.81a1.15,1.15,0,0,0-.72-2.19L44.83,47v-6.8l4.72-1.59v2.4a1.16,1.16,0,0,0,2.31,0V37.88l4.84-1.63Zm0-18.58L52,35.41v-6.9l4.73-1.65Zm0-9.4-4.84,1.69V21a1.16,1.16,0,0,0-2.31,0v5.93l-4.72,1.65V19.62L46.59,19a1.16,1.16,0,0,0,.74-1.45,1.2,1.2,0,0,0-1.46-.74l-1,.34V6.6L56.7,2.74V24.42Z"/><circle cx="50.7" cy="45.63" r="1.15"/><circle cx="36.76" cy="46.32" r="1.15"/><circle cx="22.24" cy="46.32" r="1.15"/><circle cx="50.59" cy="16.48" r="1.15"/></g></g></svg>