<svg xmlns="http://www.w3.org/2000/svg" viewBox="0 0 36.86 36.86"><defs><style>.cls-1{fill:#333;}</style></defs><title>Asset 3</title><g id="Layer_2" data-name="Layer 2"><g id="Capa_1" data-name="Capa 1"><path class="cls-1" d="M21.88,32.25h-19A2.88,2.88,0,0,1,0,29.37V5.19A2.89,2.89,0,0,1,2.89,2.3H29.36a2.9,2.9,0,0,1,2.89,2.89V21.88a1.15,1.15,0,1,1-2.3,0V5.19a.59.59,0,0,0-.59-.58H2.89a.58.58,0,0,0-.59.58V29.37a.58.58,0,0,0,.58.58h19a1.15,1.15,0,1,1,0,2.3ZM31.1,11.52H1.15a1.16,1.16,0,0,1,0-2.31h30a1.16,1.16,0,0,1,0,2.31ZM6.91,6.91A1.15,1.15,0,0,1,5.76,5.76V1.15a1.15,1.15,0,0,1,2.3,0V5.76A1.15,1.15,0,0,1,6.91,6.91Zm9.21,0A1.16,1.16,0,0,1,15,5.76V1.15a1.16,1.16,0,0,1,2.31,0V5.76A1.16,1.16,0,0,1,16.12,6.91Zm9.22,0a1.15,1.15,0,0,1-1.15-1.15V1.15a1.15,1.15,0,1,1,2.3,0V5.76A1.15,1.15,0,0,1,25.34,6.91Z"/><circle class="cls-1" cx="6.91" cy="20.73" r="1.15"/><circle class="cls-1" cx="6.91" cy="25.34" r="1.15"/><circle class="cls-1" cx="25.34" cy="16.12" r="1.15"/><circle class="cls-1" cx="16.12" cy="16.12" r="1.15"/><circle class="cls-1" cx="16.12" cy="20.73" r="1.15"/><circle class="cls-1" cx="16.12" cy="25.34" r="1.15"/><circle class="cls-1" cx="11.52" cy="16.12" r="1.15"/><circle class="cls-1" cx="11.52" cy="20.73" r="1.15"/><circle class="cls-1" cx="11.52" cy="25.34" r="1.15"/><circle class="cls-1" cx="20.73" cy="16.12" r="1.15"/><circle class="cls-1" cx="20.73" cy="20.73" r="1.15"/><circle class="cls-1" cx="25.34" cy="20.73" r="1.15"/><circle class="cls-1" cx="20.73" cy="25.34" r="1.15"/><path class="cls-1" d="M28.79,36.86a8.07,8.07,0,1,1,8.07-8.07A8.08,8.08,0,0,1,28.79,36.86Zm0-13.82a5.76,5.76,0,1,0,5.76,5.75A5.76,5.76,0,0,0,28.79,23Zm-.21,9a1.16,1.16,0,0,1-.77-.3l-2.09-1.87a1.15,1.15,0,1,1,1.54-1.71l1.14,1,1.77-2.43A1.15,1.15,0,0,1,32,28.07l-2.52,3.46a1.14,1.14,0,0,1-.81.46Z"/></g></g></svg>