<svg xmlns="http://www.w3.org/2000/svg" viewBox="0 0 69.33 58"><defs><style>.cls-1{fill:#38aaff;}.cls-2{fill:#2081f6;}.cls-3{fill:#fff0cf;}.cls-4{fill:#e6f072;}.cls-5{fill:#cbd359;}.cls-6{fill:#d0f4ef;}.cls-7{fill:#abe0da;}.cls-8{fill:#f55;}.cls-9{fill:#4c78a0;}.cls-10{fill:#60daff;}.cls-11{fill:#a0ecff;}.cls-12{fill:#d6bcab;}.cls-13{fill:#628fb1;}.cls-14{fill:#eea97b;}</style></defs><title>Asset 7</title><g id="Layer_2" data-name="Layer 2"><g id="Capa_1" data-name="Capa 1"><path class="cls-1" d="M54.56,15H16.8a4.07,4.07,0,0,1-4.07-4.07V6.26A4.07,4.07,0,0,1,16.8,2.19H54.55a4.08,4.08,0,0,1,4.08,4.07v4.67A4.07,4.07,0,0,1,54.56,15Z"/><path class="cls-2" d="M58.63,8v3A4.08,4.08,0,0,1,54.55,15H16.8a4.07,4.07,0,0,1-4.07-4.07V8A4.07,4.07,0,0,0,16.8,12H54.55A4.08,4.08,0,0,0,58.63,8Z"/><path class="cls-3" d="M24.51,15.82h-.63a1.36,1.36,0,0,1-1.36-1.35V2.37A1.35,1.35,0,0,1,23.88,1h.63a1.34,1.34,0,0,1,1.35,1.35v12.1a1.35,1.35,0,0,1-1.35,1.35Z"/><path class="cls-3" d="M37.66,15.82H37a1.35,1.35,0,0,1-1.35-1.35V2.37A1.34,1.34,0,0,1,37,1h.63A1.35,1.35,0,0,1,39,2.37v12.1a1.36,1.36,0,0,1-1.36,1.35Z"/><path class="cls-3" d="M50.82,15.82h-.64a1.36,1.36,0,0,1-1.35-1.35V2.37A1.35,1.35,0,0,1,50.18,1h.64a1.35,1.35,0,0,1,1.35,1.35v12.1a1.36,1.36,0,0,1-1.35,1.35Z"/><path class="cls-4" d="M65.15,52.34H3.22V46.19a7.86,7.86,0,0,1,1-3.82A7.73,7.73,0,0,1,6,40.28l1.44-7.84a5.32,5.32,0,0,1,.14-.89,5.17,5.17,0,0,1,5-3.9H58.81a5.16,5.16,0,0,1,5,3.9,5.06,5.06,0,0,1,.15,1Z"/><path class="cls-5" d="M65.15,52.34H62.27L61.08,32.51a5.72,5.72,0,0,0-.14-.95,5.18,5.18,0,0,0-5-3.91h2.89a5.16,5.16,0,0,1,5,3.91,4.83,4.83,0,0,1,.15.95Z"/><path class="cls-6" d="M63.82,31.56H7.53a5.17,5.17,0,0,1,5-3.91H58.81a5.16,5.16,0,0,1,5,3.91Z"/><path class="cls-7" d="M63.82,31.56H60.94a5.18,5.18,0,0,0-5-3.91h2.89a5.16,5.16,0,0,1,5,3.91Z"/><path class="cls-8" d="M6.07,44.82a2.25,2.25,0,0,1-2,2.46A1.65,1.65,0,0,1,3.22,47v-.83a7.86,7.86,0,0,1,1-3.82,2.3,2.3,0,0,1,1.85,2.45Z"/><path class="cls-7" d="M7.42,54.85h-4a2.44,2.44,0,0,1,0-4.87h4a2.44,2.44,0,0,1,0,4.87Z"/><path class="cls-7" d="M65.88,54.85h-4a2.44,2.44,0,0,1,0-4.87h4a2.44,2.44,0,1,1,0,4.87Z"/><path class="cls-9" d="M22.21,52.34a4.65,4.65,0,1,1-4.64-4.64,4.64,4.64,0,0,1,4.64,4.64Z"/><path class="cls-9" d="M55.9,52.34a4.65,4.65,0,1,1-4.64-4.64,4.64,4.64,0,0,1,4.64,4.64Z"/><path class="cls-7" d="M19.34,52.34a1.77,1.77,0,1,1-1.77-1.77,1.77,1.77,0,0,1,1.77,1.77Z"/><path class="cls-7" d="M53,52.34a1.77,1.77,0,1,1-1.77-1.77A1.77,1.77,0,0,1,53,52.34Z"/><path class="cls-10" d="M24.25,33v3a1.47,1.47,0,0,1-1.47,1.47H12a1.46,1.46,0,0,1-1.45-1.69l.45-3a1.47,1.47,0,0,1,1.45-1.26H22.78A1.48,1.48,0,0,1,24.25,33Z"/><path class="cls-11" d="M21.77,31.55l-6,6h-3.2l6-6Z"/><path class="cls-10" d="M38.21,37.55H28.67a1.47,1.47,0,0,1-1.47-1.47V33a1.47,1.47,0,0,1,1.47-1.48h9.54A1.47,1.47,0,0,1,39.68,33v3a1.47,1.47,0,0,1-1.47,1.47Z"/><path class="cls-11" d="M38.78,31.55l-6,6h-3.2l6-6Z"/><path class="cls-10" d="M57.75,34.4v1.68a1.47,1.47,0,0,1-1.47,1.47H44.09a1.47,1.47,0,0,1-1.47-1.47V33a1.48,1.48,0,0,1,1.47-1.48H54.91a2.8,2.8,0,0,1,1.79.64,2.85,2.85,0,0,1,1,2.21Z"/><path class="cls-11" d="M56.7,32.19l-5.36,5.36H45.15l6-6h3.77a2.8,2.8,0,0,1,1.79.64Z"/><path class="cls-4" d="M43.56,49.71l1.37-1.37H56.7l1.21,1.21H59V45.43H42.62v4.28Z"/><path class="cls-8" d="M56.7,22.8v3.87A1.7,1.7,0,0,1,55,28.37H36.36a1.69,1.69,0,0,1-1.69-1.7V22.8a1.69,1.69,0,0,1,1.69-1.7H55a1.7,1.7,0,0,1,1.69,1.7Z"/><path class="cls-4" d="M56.7,22.8v3.87A1.7,1.7,0,0,1,55,28.37H50.74V21.1H55a1.7,1.7,0,0,1,1.69,1.7Z"/><path class="cls-12" d="M56.7,15.8v3.88A1.69,1.69,0,0,1,55,21.37H36.36a1.69,1.69,0,0,1-1.69-1.69V15.8a1.69,1.69,0,0,1,1.69-1.69H55A1.69,1.69,0,0,1,56.7,15.8Z"/><path class="cls-13" d="M56.7,15.8v3.88A1.69,1.69,0,0,1,55,21.37H50.74V14.11H55A1.69,1.69,0,0,1,56.7,15.8Z"/><path class="cls-14" d="M29.52,28.66H17.67a1.34,1.34,0,0,1-1.35-1.35V15.46a1.34,1.34,0,0,1,1.35-1.35H29.52a1.34,1.34,0,0,1,1.35,1.35V27.31a1.34,1.34,0,0,1-1.35,1.35Z"/><path d="M66,49l-.62-10.32a1,1,0,0,0-1.07-1,1,1,0,0,0-1,1.08L63.93,49h-2a3.45,3.45,0,0,0-3.27,2.36H56.82a5.53,5.53,0,0,0-.75-2h.21l.92.92a1,1,0,1,0,1.43-1.44l-1.21-1.21a1,1,0,0,0-.72-.3H44.93a1,1,0,0,0-.72.3L42.84,49a1,1,0,1,0,1.44,1.44l1.07-1.08h1.1a5.74,5.74,0,0,0-.76,2H31.79a1,1,0,1,0,0,2h13.9a5.66,5.66,0,0,0,11.13,0h1.77a3.45,3.45,0,0,0,3.32,2.5h4A3.45,3.45,0,0,0,66,49ZM51.26,56a3.63,3.63,0,0,1-2.06-6.62h4.11A3.63,3.63,0,0,1,51.26,56Zm14.62-2.14h-4a1.42,1.42,0,1,1,0-2.83h4a1.42,1.42,0,1,1,0,2.83Z"/><path d="M17.57,55.13a2.79,2.79,0,1,0-2.79-2.79,2.79,2.79,0,0,0,2.79,2.79Zm0-3.54a.75.75,0,1,1-.76.75.76.76,0,0,1,.76-.75Z"/><path d="M51.26,49.56A2.79,2.79,0,1,0,54,52.34a2.79,2.79,0,0,0-2.78-2.78Zm0,3.53a.75.75,0,1,1,.75-.75.75.75,0,0,1-.75.75Z"/><path d="M26.18,36.08a2.5,2.5,0,0,0,2.5,2.49h9.53a2.5,2.5,0,0,0,2.49-2.49V33a2.31,2.31,0,0,0-.05-.46h1a2.31,2.31,0,0,0,0,.46v3a2.5,2.5,0,0,0,2.49,2.49H56.28a2.5,2.5,0,0,0,2.49-2.49V34.4a3.88,3.88,0,0,0-.46-1.83H63l.1,1.57a1,1,0,0,0,1,1h.06a1,1,0,0,0,1-1.07L65,32.48a1,1,0,0,0,.59-.93,1,1,0,0,0-1-1,6.2,6.2,0,0,0-5.75-3.91H57.72V22.8a2.72,2.72,0,0,0-.5-1.57,2.68,2.68,0,0,0,.5-1.55V15.8a2.72,2.72,0,0,0-.12-.8,5.07,5.07,0,0,0,2-4.07V6.26a5.09,5.09,0,0,0-5.08-5.09h-1.7a2.36,2.36,0,0,0-2-1.17h-.64a2.39,2.39,0,0,0-2,1.17H39.7a2.36,2.36,0,0,0-2-1.17H37a2.36,2.36,0,0,0-2,1.17H32.8a1,1,0,0,0,0,2h1.86V13.69a2.76,2.76,0,0,0-.3.29h-3a2.38,2.38,0,0,0-1.85-.89H26.88V3.2h1.29a1,1,0,1,0,0-2H26.55a2.36,2.36,0,0,0-2-1.17h-.63a2.36,2.36,0,0,0-2,1.17h-5a5.09,5.09,0,0,0-5.09,5.09v4.67a5.06,5.06,0,0,0,3.59,4.86V26.63H12.55A6.21,6.21,0,0,0,6.8,30.54H6.07a1,1,0,0,0,0,2h.27L5,39.75a8.77,8.77,0,0,0-2.8,6.44v3a3.44,3.44,0,0,0,1.24,6.66h4a3.45,3.45,0,0,0,3.32-2.5H12a5.66,5.66,0,0,0,11.13,0h4a1,1,0,0,0,0-2h-4a5.66,5.66,0,0,0-11.13,0H10.69A3.45,3.45,0,0,0,7.42,49H4.24v-.68a3.29,3.29,0,0,0,2.85-3.47,3.63,3.63,0,0,0-1.33-2.9,6.33,6.33,0,0,1,.85-.87A1.1,1.1,0,0,0,7,40.46l1.44-7.83s0,0,0-.06H10s0,.06,0,.1l-.45,3a2.52,2.52,0,0,0,.58,2,2.48,2.48,0,0,0,1.88.87H22.78a2.4,2.4,0,0,0,.46,0V46.2a1,1,0,0,0,2,0V33a2.31,2.31,0,0,0-.05-.46h1a2.32,2.32,0,0,0,0,.46v3ZM17.57,48.71a3.63,3.63,0,1,1-3.63,3.63,3.64,3.64,0,0,1,3.63-3.63Zm-8.73,3.7a1.42,1.42,0,0,1-1.42,1.42h-4a1.42,1.42,0,1,1,0-2.83h4a1.42,1.42,0,0,1,1.42,1.41ZM5.05,44.82a1.41,1.41,0,0,1-.81,1.43v-.06a6.85,6.85,0,0,1,.46-2.47,1.74,1.74,0,0,1,.35,1.1ZM56.74,34.4v1.68a.46.46,0,0,1-.46.45H44.09a.46.46,0,0,1-.46-.45V33a.47.47,0,0,1,.46-.46H54.91a1.83,1.83,0,0,1,1.83,1.83ZM31.89,26.63V16h1.76v3.66a2.66,2.66,0,0,0,.5,1.56,2.66,2.66,0,0,0-.5,1.56v3.83ZM40,3.2h7.78v9.89H40ZM55.69,15.8v3.88a.69.69,0,0,1-.68.68H51.75V15.12H55a.69.69,0,0,1,.68.68Zm-6-.68v5.24H36.36a.69.69,0,0,1-.68-.68V15.8a.69.69,0,0,1,.68-.68Zm-14,11.55V22.8a.7.7,0,0,1,.18-.46,2.73,2.73,0,0,0,.5.05H49.72v5H36.36a.68.68,0,0,1-.68-.68Zm16.07-4.28H55a2.73,2.73,0,0,0,.5-.05.7.7,0,0,1,.18.46v3.87a.68.68,0,0,1-.68.68H51.75ZM57.61,6.26v4.67a3,3,0,0,1-1.3,2.5,2.6,2.6,0,0,0-1.3-.34H53.19V3.2h1.36a3.06,3.06,0,0,1,3.06,3.06ZM50.18,2h.64a.34.34,0,0,1,.33.34V13.09h-1.3V2.37A.34.34,0,0,1,50.18,2ZM37,2h.63a.34.34,0,0,1,.34.34V13.09H36.69V2.37A.34.34,0,0,1,37,2ZM29.86,15.46V27.31a.34.34,0,0,1-.34.34H17.67a.35.35,0,0,1-.34-.34V15.46a.35.35,0,0,1,.34-.34H29.52a.34.34,0,0,1,.34.34ZM23.88,2h.63a.34.34,0,0,1,.34.34V13.09H23.54V2.37A.34.34,0,0,1,23.88,2Zm-10.14,8.9V6.26A3.06,3.06,0,0,1,16.8,3.2h4.71v9.89H17.67a2.39,2.39,0,0,0-1.74.77,3,3,0,0,1-2.19-2.93ZM12.55,28.66h3.18a2.38,2.38,0,0,0,1.94,1H29.52a2.38,2.38,0,0,0,1.94-1h3.07a2.66,2.66,0,0,0,1.83.72H55a2.66,2.66,0,0,0,1.83-.72h2a4.16,4.16,0,0,1,3.47,1.88H9.08a4.17,4.17,0,0,1,3.47-1.88ZM23.24,33v3a.46.46,0,0,1-.46.45H12a.47.47,0,0,1-.34-.15.46.46,0,0,1-.11-.37L12,33a.46.46,0,0,1,.45-.39H22.78a.47.47,0,0,1,.46.46Zm15-.46a.47.47,0,0,1,.46.46v3a.46.46,0,0,1-.46.45H28.68a.45.45,0,0,1-.46-.45V33a.46.46,0,0,1,.46-.46Z"/><path d="M42.14,39.57a1,1,0,1,0,0,2H61.4a1,1,0,1,0,0-2Z"/><path d="M18.94,39.57a1,1,0,0,0,0,2h1.68a1,1,0,0,0,0-2Z"/><path d="M39.68,25.23h6.93a1,1,0,1,0,0-2H39.68a1,1,0,0,0,0,2Z"/><path d="M39.68,18.24h6.93a1,1,0,1,0,0-2H39.68a1,1,0,0,0,0,2Z"/><path d="M26.61,26.77H27.7a1,1,0,0,0,0-2H26.61a1,1,0,0,0,0,2Z"/><path d="M26.61,24.33H27.7a1,1,0,0,0,0-2H26.61a1,1,0,0,0,0,2Z"/></g></g></svg>