<svg xmlns="http://www.w3.org/2000/svg" viewBox="0 0 42.97 49.02"><defs><style>.cls-1{fill:#eb7b7c;}</style></defs><title>Asset 2</title><g id="Layer_2" data-name="Layer 2"><g id="Capa_1" data-name="Capa 1"><path class="cls-1" d="M41.34,39.23H39.68v-15A18.21,18.21,0,0,0,23.11,6.07V1.63a1.63,1.63,0,1,0-3.25,0V6.07A18.21,18.21,0,0,0,3.29,24.19v15H1.63a1.63,1.63,0,0,0,0,3.26H13.48a8.18,8.18,0,0,0,16,0H41.34a1.63,1.63,0,1,0,0-3.25Zm-34.79-15a14.94,14.94,0,0,1,29.88,0V39.13H6.55V24.19ZM21.49,45.77a4.91,4.91,0,0,1-4.64-3.29h9.28a4.92,4.92,0,0,1-4.64,3.29Z"/></g></g></svg>