<svg xmlns="http://www.w3.org/2000/svg" viewBox="0 0 67 64.61"><defs><style>.cls-1{fill:#d0f4ef;}.cls-2{fill:#abe0da;}.cls-3{fill:#f72b2b;}.cls-4{fill:#d61b1f;}.cls-5{fill:#ffbd47;}.cls-6{fill:#38aaff;}</style></defs><title>Asset 6</title><g id="Layer_2" data-name="Layer 2"><g id="Capa_1" data-name="Capa 1"><path class="cls-1" d="M59.36,57.85H2.55A1.57,1.57,0,0,1,1,56.28V9.57a5,5,0,0,1,5-5H56a5,5,0,0,1,5,5V56.28a1.57,1.57,0,0,1-1.57,1.57Z"/><path class="cls-2" d="M60.93,9.57V56.28a1.57,1.57,0,0,1-1.57,1.57H54.59a1.57,1.57,0,0,0,1.58-1.57V9.57a5,5,0,0,0-5-5H56a5,5,0,0,1,5,5Z"/><path class="cls-3" d="M60.93,9.57v7.62H1V9.57a5,5,0,0,1,5-5H56a5,5,0,0,1,5,5Z"/><path class="cls-4" d="M60.93,9.57v7.62H56.17V9.57a5,5,0,0,0-5-5H56a5,5,0,0,1,5,5Z"/><path class="cls-3" d="M26,52.4a2.87,2.87,0,0,1-2-.84l-5.05-5.05A2.88,2.88,0,0,1,23,42.43l3,3L37.73,33.66a2.88,2.88,0,0,1,4.08,4.08L28,51.56a2.88,2.88,0,0,1-2,.84Z"/><path class="cls-5" d="M11.69,8.55H9.86a1.4,1.4,0,0,1-1.4-1.4V2.38A1.4,1.4,0,0,1,9.86,1h1.83a1.4,1.4,0,0,1,1.4,1.4V7.15a1.4,1.4,0,0,1-1.4,1.4Z"/><path class="cls-5" d="M24.79,8.55H23a1.4,1.4,0,0,1-1.4-1.4V2.38A1.4,1.4,0,0,1,23,1h1.83a1.4,1.4,0,0,1,1.4,1.4V7.15a1.4,1.4,0,0,1-1.4,1.4Z"/><path class="cls-5" d="M37.89,8.55H36.07a1.4,1.4,0,0,1-1.41-1.4V2.38A1.41,1.41,0,0,1,36.07,1h1.82a1.4,1.4,0,0,1,1.4,1.4V7.15a1.4,1.4,0,0,1-1.4,1.4Z"/><path class="cls-5" d="M51,8.55H49.17a1.4,1.4,0,0,1-1.41-1.4V2.38A1.41,1.41,0,0,1,49.17,1H51a1.4,1.4,0,0,1,1.4,1.4V7.15A1.4,1.4,0,0,1,51,8.55Z"/><path class="cls-6" d="M66,51.58a12,12,0,1,1-12-12,12,12,0,0,1,12,12Z"/><path class="cls-1" d="M62.64,51.58A8.66,8.66,0,1,1,54,42.93a8.66,8.66,0,0,1,8.66,8.65Z"/><path d="M1,47.74a1,1,0,0,0,1-1V18.18H60V29a1,1,0,0,0,2,0V9.57a6,6,0,0,0-6-6H53.37V2.38A2.39,2.39,0,0,0,51,0H49.17a2.39,2.39,0,0,0-2.39,2.38V3.6H40.27V2.38A2.39,2.39,0,0,0,37.89,0H36.07a2.39,2.39,0,0,0-2.39,2.38V3.6H27.17V2.38A2.39,2.39,0,0,0,24.79,0H23a2.39,2.39,0,0,0-2.38,2.38V3.6H14.07V2.38A2.39,2.39,0,0,0,11.69,0H9.86A2.39,2.39,0,0,0,7.48,2.38V3.6H6a6,6,0,0,0-6,6V46.76a1,1,0,0,0,1,1ZM48.74,2.38A.42.42,0,0,1,49.17,2H51a.42.42,0,0,1,.42.42V7.15a.42.42,0,0,1-.42.42H49.17a.42.42,0,0,1-.43-.42Zm-13.1,0A.42.42,0,0,1,36.07,2h1.82a.42.42,0,0,1,.42.42V7.15a.42.42,0,0,1-.42.42H36.07a.42.42,0,0,1-.43-.42Zm-13.1,0A.42.42,0,0,1,23,2h1.83a.42.42,0,0,1,.42.42V7.15a.42.42,0,0,1-.42.42H23a.42.42,0,0,1-.42-.42Zm-13.1,0A.42.42,0,0,1,9.86,2h1.83a.42.42,0,0,1,.42.42V7.15a.42.42,0,0,1-.42.42H9.86a.42.42,0,0,1-.42-.42ZM6,5.56H7.48V7.15A2.39,2.39,0,0,0,9.86,9.54h1.83a2.39,2.39,0,0,0,2.38-2.39V5.56h6.51V7.15A2.39,2.39,0,0,0,23,9.54h1.83a2.39,2.39,0,0,0,2.38-2.39V5.56h6.51V7.15a2.39,2.39,0,0,0,2.39,2.39h1.82a2.39,2.39,0,0,0,2.38-2.39V5.56h6.51V7.15a2.39,2.39,0,0,0,2.39,2.39H51a2.39,2.39,0,0,0,2.38-2.39V5.56H56a4,4,0,0,1,4,4v6.64H2V9.57a4,4,0,0,1,4-4Z"/><path d="M11.11,56.87H2.55A.6.6,0,0,1,2,56.28V51.23a1,1,0,0,0-2,0v5.05a2.55,2.55,0,0,0,2.55,2.55h8.56a1,1,0,0,0,0-2Z"/><path d="M11.08,21H7.67a1,1,0,1,0,0,2h3.41a1,1,0,1,0,0-2Z"/><path d="M18.15,23h3.41a1,1,0,0,0,0-2H18.15a1,1,0,0,0,0,2Z"/><path d="M28.64,23h3.41a1,1,0,0,0,0-2H28.64a1,1,0,1,0,0,2Z"/><path d="M39.12,23h3.41a1,1,0,1,0,0-2H39.12a1,1,0,0,0,0,2Z"/><path d="M53,21H49.6a1,1,0,0,0,0,2H53a1,1,0,1,0,0-2Z"/><path d="M11.08,26H7.67a1,1,0,0,0,0,2h3.41a1,1,0,0,0,0-2Z"/><path d="M18.15,27.94h3.41a1,1,0,0,0,0-2H18.15a1,1,0,0,0,0,2Z"/><path d="M28.64,27.94h3.41a1,1,0,0,0,0-2H28.64a1,1,0,1,0,0,2Z"/><path d="M39.12,27.94h3.41a1,1,0,0,0,0-2H39.12a1,1,0,0,0,0,2Z"/><path d="M53,26H49.6a1,1,0,0,0,0,2H53a1,1,0,1,0,0-2Z"/><path d="M18.18,47.2l5,5a3.87,3.87,0,0,0,5.47,0L42.51,38.43A3.87,3.87,0,0,0,37,33L26,44.05l-2.31-2.31a3.86,3.86,0,1,0-5.46,5.46Zm1.38-4.08a1.92,1.92,0,0,1,2.69,0l3,3a1,1,0,0,0,1.39,0L38.43,34.35A1.9,1.9,0,0,1,41.12,37L27.3,50.86a1.9,1.9,0,0,1-2.69,0l-5.05-5a1.91,1.91,0,0,1,0-2.69Z"/><path d="M61.91,41.27V33.44a1,1,0,1,0-2,0V40A13,13,0,0,0,42.08,56.87H15.58a1,1,0,0,0,0,2H43.17A13,13,0,1,0,61.91,41.27ZM54,62.64A11.06,11.06,0,1,1,65,51.58,11.07,11.07,0,0,1,54,62.64Z"/><path d="M54,41.94a9.64,9.64,0,1,0,9.64,9.64A9.65,9.65,0,0,0,54,41.94Zm.88,17.27a1.05,1.05,0,0,0,.1-.44V57.58a1,1,0,1,0-2,0v1.19a.92.92,0,0,0,.1.44,7.71,7.71,0,0,1-6.75-6.75.93.93,0,0,0,.44.11H48a1,1,0,1,0,0-2H46.79a.93.93,0,0,0-.44.11A7.69,7.69,0,0,1,53.1,44a.91.91,0,0,0-.1.43v1.2a1,1,0,0,0,2,0v-1.2a1,1,0,0,0-.1-.43,7.67,7.67,0,0,1,6.74,6.75.89.89,0,0,0-.43-.11H60a1,1,0,0,0,0,2h1.2a.89.89,0,0,0,.43-.11,7.69,7.69,0,0,1-6.74,6.75Z"/><path d="M56.14,50.6H55v-1a1,1,0,1,0-2,0v2a1,1,0,0,0,1,1h2.16a1,1,0,0,0,0-2Z"/></g></g></svg>