<svg xmlns="http://www.w3.org/2000/svg" viewBox="0 0 28.13 28.13"><defs><style>.cls-1{fill:#333;}</style></defs><title>Asset 4</title><g id="Layer_2" data-name="Layer 2"><g id="Capa_1" data-name="Capa 1"><path class="cls-1" d="M14.06,0A14.06,14.06,0,1,0,28.12,14.06,14.07,14.07,0,0,0,14.06,0ZM15,25.48v-2H13.16v2A11.45,11.45,0,0,1,2.65,15H4.6V13.16H2.65A11.44,11.44,0,0,1,13.16,2.65V4.6H15V2.65A11.45,11.45,0,0,1,25.48,13.16h-2V15h2A11.46,11.46,0,0,1,15,25.48Z"/><path class="cls-1" d="M14.8,12.55V6.9a.74.74,0,0,0-1.48,0v5.65a1.73,1.73,0,0,0-.63.54h-4a1,1,0,1,0,0,1.95h4a1.68,1.68,0,1,0,2.11-2.49Z"/></g></g></svg>