<svg xmlns="http://www.w3.org/2000/svg" viewBox="0 0 57 66.07"><defs><style>.cls-1{fill:#f7c92b;}.cls-2{fill:#f2b51d;}.cls-3{fill:#f7e249;}.cls-4{fill:#f33759;}.cls-5{fill:#cc2b5a;}</style></defs><title>Asset 8</title><g id="Layer_2" data-name="Layer 2"><g id="Capa_1" data-name="Capa 1"><path class="cls-1" d="M33.11,57.6a7.51,7.51,0,1,0-7.51,7.5,7.5,7.5,0,0,0,7.51-7.5Z"/><path class="cls-2" d="M25.6,50.1a7.47,7.47,0,0,0-2.18.33,7.49,7.49,0,0,1,0,14.35A7.5,7.5,0,1,0,25.6,50.1Z"/><path class="cls-1" d="M26.48,13.83A4.45,4.45,0,1,1,30,8.6a4.45,4.45,0,0,1-3.49,5.23Z"/><path class="cls-2" d="M30,8.6a4.46,4.46,0,0,0-5.25-3.49c-.22,0-.44.11-.65.18a4.45,4.45,0,0,1,0,8.36A4.45,4.45,0,0,0,30,8.6Z"/><path class="cls-3" d="M44.21,56.35H7A6,6,0,0,1,3.24,45.59l1.19-1A11.71,11.71,0,0,0,8.81,35.5V29.18a16.93,16.93,0,0,1,33.85,0v6.44a11.71,11.71,0,0,0,4.22,9l1.17,1a6.08,6.08,0,0,1,2.19,4.67v.06a6,6,0,0,1-6,6Z"/><path class="cls-1" d="M48.05,45.6l-1.17-1a11.71,11.71,0,0,1-4.22-9V29.18A16.95,16.95,0,0,0,21,13,16.9,16.9,0,0,1,33.12,29.18v6.44a11.75,11.75,0,0,0,4.22,9l1.17,1a6.05,6.05,0,0,1,2.19,4.67v.06a6,6,0,0,1-6,6h9.54a6,6,0,0,0,6-6v-.06a6.08,6.08,0,0,0-2.19-4.67Z"/><path class="cls-4" d="M56,15.47A14.53,14.53,0,1,0,41.51,30,14.51,14.51,0,0,0,56,15.47Z"/><path class="cls-5" d="M45.4,1.5A14.49,14.49,0,0,1,37,27.83a14.34,14.34,0,0,1-3.9-.53A14.51,14.51,0,1,0,45.4,1.5Z"/><path d="M55.06,15.47a1,1,0,0,0,1.94,0A15.49,15.49,0,0,0,29.5,5.7,5.43,5.43,0,0,0,20.8,12a17.9,17.9,0,0,0-13,17.18,1,1,0,0,0,1.93,0A16,16,0,0,1,22.62,13.55h0a16.23,16.23,0,0,1,3.11-.3h.44A16.34,16.34,0,0,0,26,15.47a15.5,15.5,0,0,0,15.5,15.47h.18v4.68a12.67,12.67,0,0,0,4.57,9.75l1.17,1a5.11,5.11,0,0,1,1.84,3.93v.06a5.06,5.06,0,0,1-5.06,5.05H7a5.06,5.06,0,0,1-5.06-5.05,5.1,5.1,0,0,1,1.9-4l1.2-1A12.61,12.61,0,0,0,9.77,35.5V33.38a1,1,0,1,0-1.93,0V35.5a10.73,10.73,0,0,1-4,8.38l-1.19,1A7,7,0,0,0,7,57.32H17.13c0,.09,0,.19,0,.28a8.48,8.48,0,0,0,17,0v-.28H44.21a7,7,0,0,0,7-7v-.06a7,7,0,0,0-2.55-5.42l-1.16-1a10.73,10.73,0,0,1-3.88-8.26V30.8a15.35,15.35,0,0,0,7.25-3,15.61,15.61,0,0,0,5.51-8,1,1,0,0,0-1.86-.55,13.64,13.64,0,0,1-4.82,7,13.53,13.53,0,1,1,5.36-10.78ZM32.15,57.6a6.55,6.55,0,0,1-13.09,0,2.62,2.62,0,0,1,0-.28H32.14a2.62,2.62,0,0,1,0,.28ZM25.73,11.31a18,18,0,0,0-2.93.24,3.64,3.64,0,0,1-.62-1.39,3.49,3.49,0,0,1,6.16-2.84,15,15,0,0,0-1.76,4l-.85,0Z"/><path d="M41.51,22.2a1,1,0,0,0,1-1V9.17a1,1,0,0,0-.57-.88,1,1,0,0,0-1,.17l-2.07,1.89a1,1,0,0,0-.07,1.36,1,1,0,0,0,1.37.07l.46-.42v9.87a1,1,0,0,0,1,1Z"/></g></g></svg>